/* XPM */
static char *result[] = {
/* columns rows colors chars-per-pixel */
"64 64 201 2 ",
"   c #271C1D",
".  c #281D1D",
"X  c #2D211F",
"o  c #32231F",
"O  c #323D1F",
"+  c #1F1C26",
"@  c #1B1C2C",
"#  c #1D1E31",
"$  c #241D23",
"%  c #291F21",
"&  c #221E2A",
"*  c #1F2134",
"=  c #272027",
"-  c #2C2223",
";  c #25212C",
":  c #2B242C",
">  c #322523",
",  c #362926",
"<  c #3A2A25",
"1  c #332A2D",
"2  c #3B2D2A",
"3  c #352727",
"4  c #3A302C",
"5  c #222335",
"6  c #2A2634",
"7  c #23253B",
"8  c #26283F",
"9  c #2C2A3C",
"0  c #2D2836",
"q  c #312A35",
"w  c #322C39",
"e  c #3C3333",
"r  c #36303E",
"t  c #3A323A",
"y  c #3F3A39",
"u  c #412E27",
"i  c #43332C",
"p  c #4A362E",
"a  c #45382E",
"s  c #443632",
"d  c #453834",
"f  c #4C3B34",
"g  c #433A3B",
"h  c #4B3E39",
"j  c #473735",
"k  c #513D35",
"l  c #543E3A",
"z  c #3D4B2C",
"x  c #4E403C",
"c  c #55443B",
"v  c #5B433A",
"b  c #5E493C",
"n  c #57463A",
"m  c #614A3C",
"M  c #416D24",
"N  c #272941",
"B  c #2A2C44",
"V  c #2C2E49",
"C  c #2F314C",
"Z  c #343345",
"A  c #3B3644",
"S  c #31334F",
"D  c #3D3A48",
"F  c #333552",
"G  c #353955",
"H  c #3B3B53",
"J  c #3A3C5B",
"K  c #373A59",
"L  c #302F44",
"P  c #3C3F60",
"I  c #443F49",
"U  c #413F56",
"Y  c #3F405D",
"T  c #3E4162",
"R  c #364D77",
"E  c #494343",
"W  c #524643",
"Q  c #5A4B43",
"!  c #564C4C",
"~  c #5A4C46",
"^  c #5A504D",
"/  c #454659",
"(  c #5E5758",
")  c #634D42",
"_  c #694F47",
"`  c #625145",
"'  c #695344",
"]  c #63534A",
"[  c #6D5A4B",
"{  c #6D5648",
"}  c #735C4B",
"|  c #72584A",
" . c #635C5C",
".. c #6B5A52",
"X. c #756356",
"o. c #7A6757",
"O. c #736455",
"+. c #424565",
"@. c #434769",
"#. c #45496D",
"$. c #4A4C6B",
"%. c #494D72",
"&. c #474B70",
"*. c #4D5175",
"=. c #4F5379",
"-. c #52567B",
";. c #54597E",
":. c #525474",
">. c #6D6666",
",. c #776B66",
"<. c #7B7978",
"1. c #846A56",
"2. c #836B5A",
"3. c #856953",
"4. c #887259",
"5. c #907059",
"6. c #8B7564",
"7. c #8C796C",
"8. c #9B7E66",
"9. c #967C67",
"0. c #88766B",
"q. c #509729",
"w. c #5BAF2D",
"e. c #60BD2F",
"r. c #69DB31",
"t. c #66D530",
"y. c #65CC32",
"u. c #73EE38",
"i. c #74F438",
"p. c #6BE031",
"a. c #7CB562",
"s. c #9D8169",
"d. c #928064",
"f. c #998473",
"g. c #A7886A",
"h. c #A58A73",
"j. c #AB8D73",
"k. c #AF937A",
"l. c #B79778",
"z. c #B28B6C",
"x. c #C19C7B",
"c. c #CAAE7C",
"v. c #37529B",
"b. c #3F6A9A",
"n. c #3B5AAF",
"m. c #565B81",
"M. c #595E84",
"N. c #5B6087",
"B. c #5D6389",
"V. c #61678E",
"C. c #62698F",
"Z. c #636990",
"A. c #447BA6",
"S. c #4D98CB",
"D. c #52A7C3",
"F. c #9C9898",
"G. c #978C86",
"H. c #B99D84",
"J. c #AC9B8E",
"K. c #BDA68A",
"L. c #BFA997",
"P. c #C4A58B",
"I. c #C9A485",
"U. c #D3AF8D",
"Y. c #DAAF88",
"T. c #D3A782",
"R. c #DDB48E",
"E. c #C5AB94",
"W. c #CCB29B",
"Q. c #D2B395",
"!. c #DFB791",
"~. c #D8BA96",
"^. c #E2BB95",
"/. c #E2BE9A",
"(. c #E0B791",
"). c #CEB7A4",
"_. c #DAC49A",
"`. c #DEC38E",
"'. c #E6C29D",
"]. c #E3CB9C",
"[. c #EBD19E",
"{. c #F7D696",
"}. c #E4C5A3",
"|. c #E9C6A2",
" X c #EBC9A6",
".X c #EDCDAA",
"XX c #E5CAA8",
"oX c #EDD3AB",
"OX c #EED7AA",
"+X c #F6DAA7",
"@X c #EFD1B4",
"#X c #EFDDB7",
"$X c #F4D5B9",
"%X c #E2C8B1",
"&X c #FAE1AB",
"*X c #FBE6BC",
"=X c #FCE6B7",
"-X c #CAC7C7",
";X c #EDD9C5",
":X c #FDEBC5",
">X c None",
/* pixels */
">X>X>X>X>X>X>X>X>X>X>X>X>X>X>X>X>X>X>X>X>X>X>X>X>X>X>X>X>X>X>X>X>X>X>X>X>X>X>X>X>X>X>X>X>X>X>X>X>X>X>X>X>X>X>X>X>X>X>X>X>X>X>X>X",
">X>X>X>X>X>X>X>X>X>X>X>X>X>X>X>X>X>X>X>X>X>X>X>X>X>X>X>X>X>X>X>X>X>X>X>X>X>X>X>X>X>X>X>X>X>X>X>X>X>X>X>X>X>X>X>X>X>X>X>X>X>X>X>X",
">X>X>X>X>X>X>X>X>X>X>X>X>X>X>X>X>X>X>X>X>X>X>X>X>X>X>X>X>X>X>X>X>X>X>X>X>X>X>X>X>X>X>X>X>X>X>X>X>X>X>X>X>X>X>X>X>X>X>X>X>X>X>X>X",
">X>X>X>X>X>X>X>X>X>X>X>X>X>X>X>X>X>X>X>X>X>X  $ & + + ; * ; 6 6 -   >X>X>X>X>X>X>X>X>X>X>X>X>X>X>X>X>X>X>X>X>X>X>X>X>X>X>X>X>X>X",
">X>X>X>X>X>X>X>X>X>X>X>X>X>X>X>X>X>X>X$ & & # * 7 N B C F F S S V B 6 %   >X>X>X>X>X>X>X>X>X>X>X>X>X>X>X>X>X>X>X>X>X>X>X>X>X>X>X",
">X>X>X>X>X>X>X>X>X>X>X>X>X>X>X>X>X>X  + # 7 V C F P @.&.&.#.@.#.#.@.J C 9 &   >X>X>X>X>X>X>X>X>X>X>X>X>X>X>X>X>X>X>X>X>X>X>X>X>X",
">X>X>X>X>X>X>X>X>X>X>X>X>X>X>X>X  $ @ # 8 V G P %.P %.M.*.-.m.B.M.M.;.&.T F 6   >X>X>X>X>X>X>X>X>X>X>X>X>X>X>X>X>X>X>X>X>X>X>X>X",
">X>X>X>X>X>X>X>X>X>X>X>X>X>X>X  + @ # 8 V J #.=.m.B.Z.B.B.Z.B.B.B.V.B.M.;.%.+.9   >X>X>X>X>X>X>X>X>X>X>X>X>X>X>X>X>X>X>X>X>X>X>X",
">X>X>X>X>X>X>X>X>X>X>X>X>X>X  + # * 7 B K %.%.M.V.B.Z.B.m.*.%.&.%.#.@.&.B.Z.B.=.9 X >X>X>X>X>X>X>X>X>X>X>X>X>X>X>X>X>X>X>X>X>X>X",
">X>X>X>X>X>X>X>X>X>X>X>X>X>X$ @ * # 7 V #.*.V.Z.Z.Z.m.%.&.#.@.P K F F P Y *.B.B.=.: >X>X>X>X>X>X>X>X>X>X>X>X>X>X>X>X>X>X>X>X>X>X",
">X>X>X>X>X>X>X>X>X>X>X>X>X  @ @ # * N F @.&.m.B.M.%.%.#.T G F F F S C C F F F Y -.J   >X>X>X>X>X>X>X>X>X>X>X>X>X>X>X>X>X>X>X>X>X",
">X>X>X>X>X>X>X>X>X>X>X>X  + @ @ @ 7 N F G #.&.%.&.#.T P P F V B N 7 7 7 7 8 B C H %.: >X>X>X>X>X>X>X>X>X>X>X>X>X>X>X>X>X>X>X>X>X",
">X>X>X>X>X>X>X>X>X>X>X>X  @ @ # # 7 N F B S K K G F F B B N N * @ $ + X 4 e 1 = 5 V B . >X>X>X>X>X>X>X>X>X>X>X>X>X>X>X>X>X>X>X>X",
">X>X>X>X>X>X>X>X>X>X>X>X$ @ @ # # N N B N B V B B N B N 7 5 + - ] h X.[.=X+X*X_.X.; B   >X>X>X>X>X>X>X>X>X>X>X>X>X>X>X>X>X>X>X>X",
">X>X>X>X>X>X>X>X>X>X>X  @ @ # # # N N N N N 8 N 8 N N * @ : o.Q..X%X6.` `.&X*X&X:X4.; $ >X>X>X>X>X>X>X>X>X>X>X>X>X>X>X>X>X>X>X>X",
">X>X>X>X>X>X>X>X>X>X>X  @ @ # # # 7 7 7 N 8 8 7 8 N N # l E..X.X@X.X.XP.n _.*X+X:X`.  X >X>X>X>X>X>X>X>X>X>X>X>X>X>X>X>X>X>X>X>X",
">X>X>X>X>X>X>X>X>X>X>X  @ @ # @ # * 7 * 7 # * 7 N N 6 ) }..X X.X.X.X.X.XE.n _.{.:XoX    >X>X>X>X>X>X>X>X>X>X>X>X>X>X>X>X>X>X>X>X",
">X>X>X>X>X>X>X>X>X>X>X$ @ @ # # * * * * # * * N B Z Q %X%X X.X X XoX.X.X@XQ.n c.:X#X. >X>X>X>X>X>X>X>X>X>X>X>X>X>X>X>X>X>X>X>X>X",
">X>X>X>X>X>X>X>X>X>X>X  @ @ # # * * # * * 7 N N J e I.!.h.v Q. X.X|..X X.X XW.Q ].OX  >X>X>X>X>X>X>X>X>X>X>X>X>X>X>X>X>X>X>X>X>X",
">X>X>X>X>X>X>X>X>X>X>X  @ @ # # 7 7 # * N N B C U h ^  .6.X., h. X.X.X.XK.f d.l.m XX. >X>X>X>X>X>X>X>X>X>X>X>X>X>X>X>X>X>X>X>X>X",
">X>X>X>X>X>X>X>X>X>X>X  @ @ @ @ 7 7 # 5 N B F @.I ).H v.% 3 | p o.}.~.{ d ~ Q c 4 d.X >X>X>X>X>X>X>X>X>X>X>X>X>X>X>X>X>X>X>X>X>X",
">X>X>X>X>X>X>X>X>X>X>X. @ @ @ # * 7 # 7 7 V G +.<.-XR b.  H & 3.Q H.Q...e - R / ^ a - >X>X>X>X>X>X>X>X>X>X>X>X>X>X>X>X>X>X>X>X>X",
">X>X>X>X>X>X>X>X>X>X>X>X@ @ @ # # * 7 7 8 V T A s F.I S.D.D. .>.P. X|.v C n.A.>.! f.  >X>X>X>X>X>X>X>X>X>X>X>X>X>X>X>X>X>X>X>X>X",
">X>X>X>X>X>X>X>X>X>X>X>X+ @ @ @ * * 7 5 8 V #.t x.l  .E Z t F. .j..X'.j >./ ( G.[ E.  >X>X>X>X>X>X>X>X>X>X>X>X>X>X>X>X>X>X>X>X>X",
">X>X>X>X>X>X>X>X>X>X>X>X  @ @ @ # * * 7 8 B *.g /.Y.1.h ! I _ g.'.'.|.l.m ! ^ ) Q.J.  >X>X>X>X>X>X>X>X>X>X>X>X>X>X>X>X>X>X>X>X>X",
">X>X>X>X>X>X>X>X>X>X>X>X>X+ @ @ @ @ * * 8 B *.g |.}.^.R.Y.R.(.|.'./..X'.!.T.c.!.#Xf.  >X>X>X>X>X>X>X>X>X>X>X>X>X>X>X>X>X>X>X>X>X",
">X>X>X>X>X>X>X>X>X>X>X>X>X  @ @ # @ # * 8 B %.r |..X X|.|..X.X.X|.U..X.X.X|.|..X;XQ X >X>X>X>X>X>X>X>X>X>X>X>X>X>X>X>X>X>X>X>X>X",
">X>X>X>X>X>X>X>X>X>X>X>X>X>X$ @ @ @ # 7 8 N #.A Q. X X.X.X$X.X X2.) |..X@X.X.X.X2.[   >X>X>X>X>X>X>X>X>X>X>X>X>X>X>X>X>X>X>X>X>X",
">X>X>X>X>X>X>X>X>X>X>X>X>X>X  @ @ @ @ # N 7 @.A g.'. X.X.X@X X.X'.^..X.X.X@X Xj...l.>X>X>X>X>X>X>X>X>X>X>X>X>X>X>X>X>X>X>X>X>X>X",
">X>X>X>X>X>X>X>X>X>X>X>X>X>X>X$ @ @ @ @ * N C Z 1.!.(./.|..X XH.h.h..X.X.X|.l.v _.4.>X>X>X>X>X>X>X>X>X>X>X>X>X>X>X>X>X>X>X>X>X>X",
">X>X>X>X>X>X>X>X>X>X>X>X>X>X>X  + @ @ @ @ # * 5 m T.Y.Y.R.(.|.z.8.K..X X|.g.v _.+Xa >X>X>X>X>X>X>X>X>X>X>X>X>X>X>X>X>X>X>X>X>X>X",
">X>X>X>X>X>X>X>X>X>X>X>X>X>X>X>X  @ @ @ @ @ +   $ b g.c.c.Y.R.(.(.!.R.x.[ o.OX=X`.  >X>X>X>X>X>X>X>X>X>X>X>X>X>X>X>X>X>X>X>X>X>X",
">X>X>X>X>X>X>X>X>X>X>X>X>X>X>X>X>X  @ @ $   $ & $ $   < m 5.z.l.g.3.l   c OX=X&Xo.>X>X>X>X>X>X>X>X>X>X>X>X>X>X>X>X>X>X>X>X>X>X>X",
">X>X>X>X>X>X>X>X>X>X>X>X>X>X>X>X>X>X  &   & 5 B 7 @ + $ X . . X . . % w % [ *X[.4 >X>X>X>X>X>X>X>X>X>X>X>X>X>X>X>X>X>X>X>X>X>X>X",
">X>X>X>X>X>X>X>X>X>X>X>X>X>X>X>X>X>X>X  $ * B J @.N 8 8 8 : .   & 9 S %.q r K.s.>X>X>X>X>X>X>X>X>X>X>X>X>X>X>X>X>X>X>X>X>X>X>X>X",
">X>X>X>X>X>X>X>X>X>X>X>X>X>X>X>X>X>X>X  @ N G %.B.w L F N 3 b , 7 S J ;.q :.b a >X>X>X>X>X>X>X>X>X>X>XM >X>X>X>X>X>X>X>X>X>X>X>X",
">X>X>X>X>X>X>X>X>X>X>X>X>X>X>X>X>X>X>X  * N #.M.=.- @.@.; i f o & V K ;.6 *.: >X>X>X>X>X>X>X>X>X>X>Xp.q.>X>X>X>X>X>X>X>X>X>X>X>X",
">X>X>X>X>X>X>X>X>X>X>X>X>X>X>X>X>X>X>X$ 7 C %.V.J 6 ;.H < 9.} n & V K m.: C : >X>X>X>X>X>X>X>X>Xq.p.u.>X>X>X>X>X>X>X>X>X>X>X>X>X",
">X>X>X>X>X>X>X>X>X>X>X>X>X>X>X>X>X>X>X$ 5 F %.:.6 / m.9 [ K.3.m = N K m.q 6 X >X>X>X>X>X>X>X>Xz r.i.y.>X>X>X>X>X>X>X>X>X>X>X>X>X",
">X>X>X>X>X>X>X>X>X>X>X>X>X>X>X>X>X>X  > + 7 N 6 9 +.*.: 5.h.m a = N Y ;.w d >X>X>X>X>X>X>X>X4 e.i.r.>X>X>X>X>X>X>X>X>X>X>X>X>X>X",
">X>X>X>X>X>X>X>X>X>X>X>X>X>X>X>X>X>X% g.] g $ 6 G *.+.- , i p < X N K ;.A ) >X>X>X>X>X>X>X% w.u.r.>X>X>X>X>X>X>X>X>X>X>X>X>X>X>X",
">X>X>X>X>X>X>X>X>X>X>X>X>X>X>X>X>X>Xi ^.$XW.& N F =.J k j n p 2 - 8 G ;.Z 2 >X>X>X>X>X>X>Xg a.e.t.>X>X>X>X>X>X>X>X>X>X>X>X>X>X>X",
">X>X>X>X>X>X>X>X>X>X>X>X>X>X>X>X>X  s l.k.H.1 N F ;.H 2.4., 2 2 - 8 F ;.U X >X. 4 >X>X  r <.g e.>X>X>X>X>X>X>X>X>X>X>X>X>X>X>X>X",
">X>X>X>X>X>X>X>X>X>X>X>X>X>X>X>X>X& $ E.j.).h 8 J N.r s   i 2 > X 7 C *.$.2     1 -   g a.e >X>X>X>X>X>X>X>X>X>X>X>X>X>X>X>X>X>X",
">X>X>X>X>X>X>X>X>X>X>X>X>X>X>X>X. + @ f 8.P.X.6 T m.9 } s.4.{ n - 7 S +.:.h 7..   x >.e 4 >X>X>X>X>X>X>X>X>X>X>X>X>X>X>X>X>X>X>X",
">X>X>X>X>X>X>X>X>X>X>X>X>X>X>X>X  @ @ + W E.7.$ H m.9 < p < o u , 5 C J M.1 Q ^ - X ^ ( >X>X>X>X>X>X>X>X>X>X>X>X>X>X>X>X>X>X>X>X",
">X>X>X>X>X>X>X>X>X>X>X>X>X>X>X>X$ @ @ 7 & ) ,.).c / L } h.3.} m 2 5 Z K B.L 4.h - x X E - >X>X>X>X>X>X>X>X>X>X>X>X>X>X>X>X>X>X>X",
">X>X>X>X>X>X>X>X>X>X>X>X>X>X>X  @ @ @ N % Y.$X%X,.1 B ` I.s.} { i ; B S =./ s o c , ,   g - >X>X>X>X>X>X>X>X>X>X>X>X>X>X>X>X>X>X",
">X>X>X>X>X>X>X>X>X>X>X>X>X>X>X  @ @ @ 7 5 8.g.c ~ w B h P.8.3.} p ; B C +.$.X 2 - i >X>X>X>X>X>X>X>X>X>X>X>X>X>X>X>X>X>X>X>X>X>X",
">X>X>X>X>X>X>X>X>X>X>X>X>X>X>X+ @ @ # N 8 : : s H m.V 3 ) b i 2 - & B C K M.-   > >X>X>X>X>X>X>X>X>X>X>X>X>X>X>X>X>X>X>X>X>X>X>X",
">X>X>X>X>X>X>X>X>X>X>X>X>X>X$ @ @ @ # N 8 8 8 C +.B.J : @ + @ + @ $ N V G N.q >X>X>X>X>X>X>X>X>X>X>X>X>X>X>X>X>X>X>X>X>X>X>X>X>X",
">X>X>X>X>X>X>X>X>X>X>X>X>X  + @ @ # # # 8 8 8 B F +.T ; 5 # @ @ @ $ 7 V S -.H >X>X>X>X>X>X>X>X>X>X>X>X>X>X>X>X>X>X>X>X>X>X>X>X>X",
">X>X>X>X>X>X>X>X>X>X>X>X>X  $ & # @ @ # # * 7 N V B F 6 9 F 7 5 & = ; B V K +.  >X>X>X>X>X>X>X>X>X>X>X>X>X>X>X>X>X>X>X>X>X>X>X>X",
">X>X>X>X>X>X>X>X>X>X>X>X>X>X>X  + + @ @ @ # # @ # * 7 9 %         i - 5 N V F - >X>X>X>X>X>X>X>X>X>X>X>X>X>X>X>X>X>X>X>X>X>X>X>X",
">X>X>X>X>X>X>X>X>X>X>X>X>X>X>X>X>X    $ @ @ $ $ % % $ % >X>X>X>X  ' ) - & & ; % >X>X>X>X>X>X>X>X>X>X>X>X>X>X>X>X>X>X>X>X>X>X>X>X",
">X>X>X>X>X>X>X>X>X>X>X>X>X>X>X>X>X>X>X>X. . . o , - >X>X>X>X>X>XX 2 i f , >X    >X>X>X>X>X>X>X>X>X>X>X>X>X>X>X>X>X>X>X>X>X>X>X>X",
">X>X>X>X>X>X>X>X>X>X>X>X>X>X>X>X>X>X>X>X>X> m | ) - >X  . >X>X>X> v l k > . . . >X>X>X>X>X>X>X>X>X>X>X>X>X>X>X>X>X>X>X>X>X>X>X>X",
">X>X>X>X>X>X>X>X>X>X>X>X>X>X>X>X>X>X>X>X. u p p , v >   i >X>X. < p p f _ i . i >X>X>X>X>X>X>X>X>X>X>X>X>X>X>X>X>X>X>X>X>X>X>X>X",
">X>X>X>X>X>X>X>X>X>X>X>X>X>X>X>X>X>X>X>X. < p p l ) l < > >X>X. < u p ) | _ l > >X>X>X>X>X>X>X>X>X>X>X>X>X>X>X>X>X>X>X>X>X>X>X>X",
">X>X>X>X>X>X>X>X>X>X>X>X>X>X>X>X>X>X>X>X. o u u p p u X . >X>X>X. o u u u < - >X>X>X>X>X>X>X>X>X>X>X>X>X>X>X>X>X>X>X>X>X>X>X>X>X",
">X>X>X>X>X>X>X>X>X>X>X>X>X>X>X>X>X>X>X>X>X. X > o . . >X>X>X>X>X>X  . . . >X>X>X>X>X>X>X>X>X>X>X>X>X>X>X>X>X>X>X>X>X>X>X>X>X>X>X",
">X>X>X>X>X>X>X>X>X>X>X>X>X>X>X>X>X>X>X>X>X>X>X>X>X>X>X>X>X>X>X>X>X>X>X>X>X>X>X>X>X>X>X>X>X>X>X>X>X>X>X>X>X>X>X>X>X>X>X>X>X>X>X>X",
">X>X>X>X>X>X>X>X>X>X>X>X>X>X>X>X>X>X>X>X>X>X>X>X>X>X>X>X>X>X>X>X>X>X>X>X>X>X>X>X>X>X>X>X>X>X>X>X>X>X>X>X>X>X>X>X>X>X>X>X>X>X>X>X",
">X>X>X>X>X>X>X>X>X>X>X>X>X>X>X>X>X>X>X>X>X>X>X>X>X>X>X>X>X>X>X>X>X>X>X>X>X>X>X>X>X>X>X>X>X>X>X>X>X>X>X>X>X>X>X>X>X>X>X>X>X>X>X>X"
};
