/* XPM */
static char *result[] = {
/* columns rows colors chars-per-pixel */
"64 64 198 2 ",
"   c #261D1D",
".  c #291D1D",
"X  c #2C211E",
"o  c #32231F",
"O  c #31371F",
"+  c #1F1C27",
"@  c #1B1C2C",
"#  c #1D1F31",
"$  c #241D23",
"%  c #291F21",
"&  c #221E2B",
"*  c #1F2134",
"=  c #2C2223",
"-  c #25212C",
";  c #2B242B",
":  c #272025",
">  c #332523",
",  c #362926",
"<  c #3B2A25",
"1  c #352C2C",
"2  c #3C2E2A",
"3  c #332626",
"4  c #3F312D",
"5  c #222335",
"6  c #2A2633",
"7  c #2E2834",
"8  c #23253B",
"9  c #26283F",
"0  c #2C2A3B",
"q  c #322B35",
"w  c #332E3D",
"e  c #3C3232",
"r  c #3A343C",
"t  c #3B353B",
"y  c #422E27",
"u  c #43332C",
"i  c #49352D",
"p  c #49382E",
"a  c #423533",
"s  c #463934",
"d  c #4C3B33",
"f  c #4D3F39",
"g  c #42383B",
"h  c #523F36",
"j  c #3D5C22",
"k  c #46413A",
"l  c #544236",
"z  c #54433B",
"x  c #5A433A",
"c  c #5D493D",
"v  c #57483F",
"b  c #614B3C",
"n  c #447426",
"m  c #272940",
"M  c #2A2C44",
"N  c #2D2E49",
"B  c #2F314C",
"V  c #323145",
"C  c #31334E",
"Z  c #3D3A4B",
"A  c #3A3646",
"S  c #333552",
"D  c #353956",
"F  c #3A3C5B",
"G  c #3B3B55",
"H  c #413E53",
"J  c #3E4162",
"K  c #374E77",
"L  c #494244",
"P  c #524644",
"I  c #5A4B43",
"U  c #554D4E",
"Y  c #5B4E4A",
"T  c #564841",
"R  c #5F5049",
"E  c #44435C",
"W  c #4B4D56",
"Q  c #5B5455",
"!  c #554E51",
"~  c #634C42",
"^  c #635244",
"/  c #695345",
"(  c #64534B",
")  c #6C5549",
"_  c #6D594A",
"`  c #745C4B",
"'  c #71574A",
"]  c #655E5D",
"[  c #735F50",
"{  c #76644E",
"}  c #7A6554",
"|  c #786758",
" . c #424566",
".. c #434769",
"X. c #45496D",
"o. c #4A4C6A",
"O. c #50526F",
"+. c #474B70",
"@. c #4A4D72",
"#. c #4C5175",
"$. c #4E5379",
"%. c #52567B",
"&. c #54597E",
"*. c #515476",
"=. c #6A6465",
"-. c #776B66",
";. c #797675",
":. c #856C54",
">. c #846C5B",
",. c #886A54",
"<. c #8A755A",
"1. c #8D7562",
"2. c #88776A",
"3. c #937A65",
"4. c #9A7E67",
"5. c #509329",
"6. c #5FBC2E",
"7. c #58A42E",
"8. c #65D42F",
"9. c #67D831",
"0. c #68D830",
"q. c #66C137",
"w. c #73EE39",
"e. c #74F438",
"r. c #6AE131",
"t. c #9E8268",
"y. c #9A887C",
"u. c #A6856A",
"i. c #A58B74",
"p. c #AC8D74",
"a. c #A98C78",
"s. c #AE9476",
"d. c #B99577",
"f. c #B58E6E",
"g. c #80B766",
"h. c #C39D7D",
"j. c #C9AF7C",
"k. c #375097",
"l. c #3F6A9F",
"z. c #3A59AB",
"x. c #565B81",
"c. c #595E84",
"v. c #5B6186",
"b. c #5D638A",
"n. c #42749D",
"m. c #61678E",
"M. c #62688F",
"N. c #646A91",
"B. c #51A6BF",
"V. c #4D97CA",
"C. c #51A5C4",
"Z. c #878383",
"A. c #9B9696",
"S. c #BB9D84",
"D. c #AC9A8E",
"F. c #BCA288",
"G. c #BFAC95",
"H. c #C3A48B",
"J. c #CBA685",
"K. c #D4AA84",
"L. c #D5AB86",
"P. c #DDB48E",
"I. c #D2BA8D",
"U. c #CBAE91",
"Y. c #C5AE9A",
"T. c #CEB195",
"R. c #D4B393",
"E. c #DFB791",
"W. c #D9BA99",
"Q. c #E2BB95",
"!. c #E4BE99",
"~. c #E0B791",
"^. c #D0B8A4",
"/. c #DBC49B",
"(. c #E5C19D",
"). c #E4C799",
"_. c #F3D59B",
"`. c #DFC4A9",
"'. c #E6C5A2",
"]. c #E9C6A2",
"[. c #EAC9A6",
"{. c #EDCCAA",
"}. c #E5C8AA",
"|. c #EAD2A3",
" X c #EDD2AC",
".X c #EED8AC",
"XX c #F8DDA5",
"oX c #EFCFB0",
"OX c #EFD2B3",
"+X c #EFDCB6",
"@X c #F3D6B9",
"#X c #FAE1AC",
"$X c #FBE6BC",
"%X c #FBE3B2",
"&X c #CCC9C9",
"*X c #F0DBC6",
"=X c #FDEAC6",
"-X c None",
/* pixels */
"-X-X-X-X-X-X-X-X-X-X-X-X-X-X-X-X-X-X-X-X-X-X-X-X-X-X-X-X-X-X-X-X-X-X-X-X-X-X-X-X-X-X-X-X-X-X-X-X-X-X-X-X-X-X-X-X-X-X-X-X-X-X-X-X",
"-X-X-X-X-X-X-X-X-X-X-X-X-X-X-X-X-X-X-X-X-X-X-X-X-X-X-X-X-X-X-X-X-X-X-X-X-X-X-X-X-X-X-X-X-X-X-X-X-X-X-X-X-X-X-X-X-X-X-X-X-X-X-X-X",
"-X-X-X-X-X-X-X-X-X-X-X-X-X-X-X-X-X-X-X-X-X-X-X-X-X-X-X-X-X-X-X-X-X-X-X-X-X-X-X-X-X-X-X-X-X-X-X-X-X-X-X-X-X-X-X-X-X-X-X-X-X-X-X-X",
"-X-X-X-X-X-X-X-X-X-X-X-X-X-X-X-X-X-X-X-X-X-X-X-X-X-X-X-X-X-X. : 6 - 5 5 - + & & $   -X-X-X-X-X-X-X-X-X-X-X-X-X-X-X-X-X-X-X-X-X-X",
"-X-X-X-X-X-X-X-X-X-X-X-X-X-X-X-X-X-X-X-X-X-X-X-X-X-X-X. % 6 N N B B S S B N m 8 8 # & $   -X-X-X-X-X-X-X-X-X-X-X-X-X-X-X-X-X-X-X",
"-X-X-X-X-X-X-X-X-X-X-X-X-X-X-X-X-X-X-X-X-X-X-X-X-X. : 9 B F J X.X...X.X.X...J S B M 8 # + $ -X-X-X-X-X-X-X-X-X-X-X-X-X-X-X-X-X-X",
"-X-X-X-X-X-X-X-X-X-X-X-X-X-X-X-X-X-X-X-X-X-X-X-X  6 S J +.x.c.b.v.x.&.#.c.#.J +. .S C 9 # @ $   -X-X-X-X-X-X-X-X-X-X-X-X-X-X-X-X",
"-X-X-X-X-X-X-X-X-X-X-X-X-X-X-X-X-X-X-X-X-X-X-XX 0 J @.&.c.b.b.b.b.M.N.b.b.b.b.x.@.X.F M 9 # # +   -X-X-X-X-X-X-X-X-X-X-X-X-X-X-X",
"-X-X-X-X-X-X-X-X-X-X-X-X-X-X-X-X-X-X-X-X-X-X  7 #.b.N.m.@. .X.@.@.#.#.&.b.N.b.m.c.@.@.F M * # # +   -X-X-X-X-X-X-X-X-X-X-X-X-X-X",
"-X-X-X-X-X-X-X-X-X-X-X-X-X-X-X-X-X-X-X-X-X-X; %.M.c.@.J F S S D J J +.+.@.x.m.N.N.m.@.X.N m * # @ $ -X-X-X-X-X-X-X-X-X-X-X-X-X-X",
"-X-X-X-X-X-X-X-X-X-X-X-X-X-X-X-X-X-X-X-X-X  G %.J S S S C C C C C S D J ..@.#.c.b.x.@...S m # # @ @   -X-X-X-X-X-X-X-X-X-X-X-X-X",
"-X-X-X-X-X-X-X-X-X-X-X-X-X-X-X-X-X-X-X-X-X7 X.D N M 9 8 8 8 9 m M N S F J ..X.+.+.@.X.D C m m @ @ @ +   -X-X-X-X-X-X-X-X-X-X-X-X",
"-X-X-X-X-X-X-X-X-X-X-X-X-X-X-X-X-X-X-X-XX 0 B 6 $ 1 e e : $ & @ * 9 9 M N S S S D D N N S M m # # @ @ $ -X-X-X-X-X-X-X-X-X-X-X-X",
"-X-X-X-X-X-X-X-X-X-X-X-X-X-X-X-X-X-X-X-X: M - | /.=X_.$X|.| f ^ = @ 5 9 9 M 9 M N B M m M m M # # @ @ + -X-X-X-X-X-X-X-X-X-X-X-X",
"-X-X-X-X-X-X-X-X-X-X-X-X-X-X-X-X-X-X-X-X: - :.%XXX$X#X).^ 1.oX{.U.| ; @ 8 9 9 9 m m m m m m m # # @ @ + . -X-X-X-X-X-X-X-X-X-X-X",
"-X-X-X-X-X-X-X-X-X-X-X-X-X-X-X-X-X-X-X-X  X /.=XXX$X/.l F.{.{.OX{.{.U.z & 9 9 9 9 8 8 m 8 8 * # # @ @ @ . -X-X-X-X-X-X-X-X-X-X-X",
"-X-X-X-X-X-X-X-X-X-X-X-X-X-X-X-X-X-X-X-X  . |.=X_./.l U. X[.{.{.{.{.{.`.~ 6 m m 8 * # 8 * 8 * * @ # @ @   -X-X-X-X-X-X-X-X-X-X-X",
"-X-X-X-X-X-X-X-X-X-X-X-X-X-X-X-X-X-X-X-X-X  +X=Xj.v R.OX X{. X{.].[.'.}.}.Y C M m * * * * 8 * * # # @ @ $ -X-X-X-X-X-X-X-X-X-X-X",
"-X-X-X-X-X-X-X-X-X-X-X-X-X-X-X-X-X-X-X-X-X  .X|.P T.[.{.{.{.'.{.[.T.P a.W.J.e F m m * * * # * * * # @ @   -X-X-X-X-X-X-X-X-X-X-X",
"-X-X-X-X-X-X-X-X-X-X-X-X-X-X-X-X-X-X-X-X-X  |.R d.3.s F.{.{.{.[.a.2 | >.[ ( a H N N m m * # 8 * # @ @ @ $ -X-X-X-X-X-X-X-X-X-X-X",
"-X-X-X-X-X-X-X-X-X-X-X-X-X-X-X-X-X-X-X-X-X. <.1 z Y I s _ !.W.| u [ > $ k.A &XL +.S M m 8 # * m @ @ @ @   -X-X-X-X-X-X-X-X-X-X-X",
"-X-X-X-X-X-X-X-X-X-X-X-X-X-X-X-X-X-X-X-X-XX s U W K : t _ U.S.^ >.% D . l.K &X-.J S N m * * 8 * # @ @ @   -X-X-X-X-X-X-X-X-X-X-X",
"-X-X-X-X-X-X-X-X-X-X-X-X-X-X-X-X-X-X-X-X-X  y.P -.n.z.S z }.{.J.] =.B.C.V.Z A.4 A J N 9 8 m * * * @ @ @ -X-X-X-X-X-X-X-X-X-X-X-X",
"-X-X-X-X-X-X-X-X-X-X-X-X-X-X-X-X-X-X-X-X-X  Y.{ Z.! ! =.s (.{.p.] A.t V U Q l h.r X.N 9 * 9 * # @ @ @ + -X-X-X-X-X-X-X-X-X-X-X-X",
"-X-X-X-X-X-X-X-X-X-X-X-X-X-X-X-X-X-X-X-X-X. D.R.~ U U ~ d.].(.(.u.c P U z :.L.!.g @.M 9 5 * * @ @ @ @   -X-X-X-X-X-X-X-X-X-X-X-X",
"-X-X-X-X-X-X-X-X-X-X-X-X-X-X-X-X-X-X-X-X-X  y.@XP.j.K.~.(. XQ.(.].E.R.L.E.Q.'.[.g #.M m # 8 @ @ @ @ + -X-X-X-X-X-X-X-X-X-X-X-X-X",
"-X-X-X-X-X-X-X-X-X-X-X-X-X-X-X-X-X-X-X-X-X  v *XoX(.].{.{.[.R.]. X{.[.'.'.[.{.'.r @.m m * # @ @ @ @   -X-X-X-X-X-X-X-X-X-X-X-X-X",
"-X-X-X-X-X-X-X-X-X-X-X-X-X-X-X-X-X-X-X-X-XX { >.{.oX{.oX{.].c >.{.{.@X{.{.[.[.R.A X.m m 9 @ @ @ @ + -X-X-X-X-X-X-X-X-X-X-X-X-X-X",
"-X-X-X-X-X-X-X-X-X-X-X-X-X-X-X-X-X-X-X-X-X-Xs.^ f.[.oXoX{.{.Q.(.{.{.oXoX{.].(.u.A ..m m # @ @ @ @   -X-X-X-X-X-X-X-X-X-X-X-X-X-X",
"-X-X-X-X-X-X-X-X-X-X-X-X-X-X-X-X-X-X-X-X-X-X| ).T d.].{.{.{.i.i.d.{.{.!.(.~.P.>.V B m # @ @ @ @ $ -X-X-X-X-X-X-X-X-X-X-X-X-X-X-X",
"-X-X-X-X-X-X-X-X-X-X-X-X-X-X-X-X-X-X-X-X-X-Xs XX/.l u.'.].{.H.4.f.(.~.P.P.P.j.b 5 # # @ @ @ @ $   -X-X-X-X-X-X-X-X-X-X-X-X-X-X-X",
"-X-X-X-X-X-X-X-X-X-X-X-X-X-X-X-X-X-X-X-X-X-X. I.%X X2.^ h.~.P.~.~.P.P.K.h.4.b % $ + @ @ @ @ +   -X-X-X-X-X-X-X-X-X-X-X-X-X-X-X-X",
"-X-X-X-X-X-X-X-X-X-X-X-X-X-X-X-X-X-X-X-X-X-X-X:.#X#X|.f . h ,.u.d.f.,./ y     $ & :   & @ +   -X-X-X-X-X-X-X-X-X-X-X-X-X-X-X-X-X",
"-X-X-X-X-X-X-X-X-X-X-X-X-X-X-X-X-X-X-X-X-X-X-X, |.$X} % 6 $ . . o .   . $ & @ * M * + . +   -X-X-X-X-X-X-X-X-X-X-X-X-X-X-X-X-X-X",
"-X-X-X-X-X-X-X-X-X-X-X-X-X-X-X-X-X-X-X-X-X-X-X-Xt.Y.w q $.S 6 5     & 9 9 m M ..F M 8 $   -X-X-X-X-X-X-X-X-X-X-X-X-X-X-X-X-X-X-X",
"-X-X-X-X-X-X-X-X-X-X-X-Xn -X-X-X-X-X-X-X-X-X-X-Xp v O.q &.F C 5 > b 3 M C V M c.@.S 9 &   -X-X-X-X-X-X-X-X-X-X-X-X-X-X-X-X-X-X-X",
"-X-X-X-X-X-X-X-X-X-X-X-X5.r.-X-X-X-X-X-X-X-X-X-X-X7 O.; x.D N & > d u & .. .= %.c...m *   -X-X-X-X-X-X-X-X-X-X-X-X-X-X-X-X-X-X-X",
"-X-X-X-X-X-X-X-X-X-X-X-X-Xw.9.5.-X-X-X-X-X-X-X-X-X; B ; x.F M & h ` 3.2 G &.7 G M.@.C 5 $ -X-X-X-X-X-X-X-X-X-X-X-X-X-X-X-X-X-X-X",
"-X-X-X-X-X-X-X-X-X-X-X-X-X8.e.9.j -X-X-X-X-X-X-X-XX 5 q x.F N $ b :.S.' 6 c.G 7 #.X.S 5 $ -X-X-X-X-X-X-X-X-X-X-X-X-X-X-X-X-X-X-X",
"-X-X-X-X-X-X-X-X-X-X-X-X-X-X9.e.q.O -X-X-X-X-X-X-X-Xs q &.F M : u ~ p.<.; #...w q 9 9 @ . . -X-X-X-X-X-X-X-X-X-X-X-X-X-X-X-X-X-X",
"-X-X-X-X-X-X-X-X-X-X-X-X-X-X-X0.e.7.X -X-X-X-X-X-X-XY r %.D m % < i u < % ..@.S 6 $ 2 ) s.. -X-X-X-X-X-X-X-X-X-X-X-X-X-X-X-X-X-X",
"-X-X-X-X-X-X-X-X-X-X-X-X-X-X-X9.q.g.k -X-X-X-X-X-X-X> A x.D m % 2 d l s f H %.S m 6 Y.*XQ.2 -X-X-X-X-X-X-X-X-X-X-X-X-X-X-X-X-X-X",
"-X-X-X-X-X-X-X-X-X-X-X-X-X-X-X-X6.e Z.t X -X-Xe . -X. H x.S m % 4 < , <.>.Z &.S m = F.s.h.u   -X-X-X-X-X-X-X-X-X-X-X-X-X-X-X-X-X",
"-X-X-X-X-X-X-X-X-X-X-X-X-X-X-X-X-X-Xe ;.t X = 1   . a o.@.S 8 . o 2 u % s w v.F 9 T ^.i.Y.& $ -X-X-X-X-X-X-X-X-X-X-X-X-X-X-X-X-X",
"-X-X-X-X-X-X-X-X-X-X-X-X-X-X-X-X-X-X-Xe e =.L X . 2.f *...V 5 X l ` :.t._ w &.J 6 _ H.t.s @ +   -X-X-X-X-X-X-X-X-X-X-X-X-X-X-X-X",
"-X-X-X-X-X-X-X-X-X-X-X-X-X-X-X-X-X-X-X-XQ U X X I I q c.F N 9 , y , , s 2 0 &.G % 2.U.Y $ # @   -X-X-X-X-X-X-X-X-X-X-X-X-X-X-X-X",
"-X-X-X-X-X-X-X-X-X-X-X-X-X-X-X-X-X-X-X= k X k X f 1.w b.D N 5 y b ' ,.u.` V E g ^.-.~ ; * @ @ $ -X-X-X-X-X-X-X-X-X-X-X-X-X-X-X-X",
"-X-X-X-X-X-X-X-X-X-X-X-X-X-X-X-X-X-X= e X s > z = u E %.S N 5 u _ ` t.J.^ m ; 2.}.@XL.& m # @ @   -X-X-X-X-X-X-X-X-X-X-X-X-X-X-X",
"-X-X-X-X-X-X-X-X-X-X-X-X-X-X-X-X-X-X-X-X-X-Xu > 2 . o.J C M - i ` } t.H.f N 7 ( z p.3.& m @ @ @ $ -X-X-X-X-X-X-X-X-X-X-X-X-X-X-X",
"-X-X-X-X-X-X-X-X-X-X-X-X-X-X-X-X-X-X-X-X-X-X. o   ; c.F C M $ = < i c ~ 3 N x.G e 3 ; 9 m # @ @ & -X-X-X-X-X-X-X-X-X-X-X-X-X-X-X",
"-X-X-X-X-X-X-X-X-X-X-X-X-X-X-X-X-X-X-X-X-X-X-X-X-Xq v.D M m $ @ @ @ + @ $ F b.J C m m m 8 # @ @ @ $ -X-X-X-X-X-X-X-X-X-X-X-X-X-X",
"-X-X-X-X-X-X-X-X-X-X-X-X-X-X-X-X-X-X-X-X-X-X-X-X-XG %.S M 9 $ @ @ @ # 5 ; J  .D M 9 m m * # @ @ @ + . -X-X-X-X-X-X-X-X-X-X-X-X-X",
"-X-X-X-X-X-X-X-X-X-X-X-X-X-X-X-X-X-X-X-X-X-X-X-X.  .F N N 5 $ & 5 5 S w 6 S N N 9 9 8 @ @ @ @ @ +     -X-X-X-X-X-X-X-X-X-X-X-X-X",
"-X-X-X-X-X-X-X-X-X-X-X-X-X-X-X-X-X-X-X-X-X-X-X-X% C M m * = u . . . % % 6 9 # # # @ # @ @ @ @ +   -X-X-X-X-X-X-X-X-X-X-X-X-X-X-X",
"-X-X-X-X-X-X-X-X-X-X-X-X-X-X-X-X-X-X-X-X-X-X-X-X% - & & . b ' . -X-X-X-X$ $ % % $ $ + @ $   . -X-X-X-X-X-X-X-X-X-X-X-X-X-X-X-X-X",
"-X-X-X-X-X-X-X-X-X-X-X-X-X-X-X-X-X-X-X-X-X-X-X-X-X. . < d a 2 . -X-X-X-X-X-X= 2 % . .   -X-X-X-X-X-X-X-X-X-X-X-X-X-X-X-X-X-X-X-X",
"-X-X-X-X-X-X-X-X-X-X-X-X-X-X-X-X-X-X-X-X-X-X-X-X% . . = h h b o -X-X-X. . -X= ~ ' x o -X-X-X-X-X-X-X-X-X-X-X-X-X-X-X-X-X-X-X-X-X",
"-X-X-X-X-X-X-X-X-X-X-X-X-X-X-X-X-X-X-X-X-X-X-X-Xy % y / i i i o . -X-X2 . > h 2 h i y   -X-X-X-X-X-X-X-X-X-X-X-X-X-X-X-X-X-X-X-X",
"-X-X-X-X-X-X-X-X-X-X-X-X-X-X-X-X-X-X-X-X-X-X-X-X3 h ) ' / i y <   -X-X> < h ~ h i i < . -X-X-X-X-X-X-X-X-X-X-X-X-X-X-X-X-X-X-X-X",
"-X-X-X-X-X-X-X-X-X-X-X-X-X-X-X-X-X-X-X-X-X-X-X-X-X% < y y y > . -X-X-X. o u i i y y o . -X-X-X-X-X-X-X-X-X-X-X-X-X-X-X-X-X-X-X-X",
"-X-X-X-X-X-X-X-X-X-X-X-X-X-X-X-X-X-X-X-X-X-X-X-X-X-X-X. . . . -X-X-X-X-X-X. o o > . . -X-X-X-X-X-X-X-X-X-X-X-X-X-X-X-X-X-X-X-X-X",
"-X-X-X-X-X-X-X-X-X-X-X-X-X-X-X-X-X-X-X-X-X-X-X-X-X-X-X-X-X-X-X-X-X-X-X-X-X-X-X-X-X-X-X-X-X-X-X-X-X-X-X-X-X-X-X-X-X-X-X-X-X-X-X-X",
"-X-X-X-X-X-X-X-X-X-X-X-X-X-X-X-X-X-X-X-X-X-X-X-X-X-X-X-X-X-X-X-X-X-X-X-X-X-X-X-X-X-X-X-X-X-X-X-X-X-X-X-X-X-X-X-X-X-X-X-X-X-X-X-X",
"-X-X-X-X-X-X-X-X-X-X-X-X-X-X-X-X-X-X-X-X-X-X-X-X-X-X-X-X-X-X-X-X-X-X-X-X-X-X-X-X-X-X-X-X-X-X-X-X-X-X-X-X-X-X-X-X-X-X-X-X-X-X-X-X"
};
