/* XPM */
static char *result[] = {
/* columns rows colors chars-per-pixel */
"64 64 253 2 ",
"   c black",
".  c #010101",
"X  c #020202",
"o  c #020203",
"O  c #030304",
"+  c #040304",
"@  c #040404",
"#  c #050405",
"$  c #050506",
"%  c #050607",
"&  c #070608",
"*  c #070708",
"=  c #070808",
"-  c #08090A",
";  c #0A080B",
":  c #0A0A0B",
">  c #0A090D",
",  c #0B0C0D",
"<  c #0B0D0E",
"1  c #0D0E0F",
"2  c #0C0D10",
"3  c #0D0E10",
"4  c #0E0E10",
"5  c #0E0F11",
"6  c #0D0F12",
"7  c #101012",
"8  c #101113",
"9  c #111113",
"0  c #101115",
"q  c #111214",
"w  c #111315",
"e  c #121214",
"r  c #101316",
"t  c #131316",
"y  c #131416",
"u  c #15161A",
"i  c #19151E",
"p  c #161819",
"a  c #19191C",
"s  c #18191D",
"d  c #1A1A1D",
"f  c #1A1B1D",
"g  c #181A1F",
"h  c #191B1F",
"j  c #1A1C1F",
"k  c #1B1C1F",
"l  c #191C20",
"z  c #1B1C20",
"x  c #1C1D20",
"c  c #1C1E21",
"v  c #1D1F23",
"b  c #1E1F22",
"n  c #261E2D",
"m  c #1F2023",
"M  c #1F2123",
"N  c #1F2124",
"B  c #1F2225",
"V  c #212225",
"C  c #232428",
"Z  c #232529",
"A  c #22242A",
"S  c #27202F",
"D  c #28292E",
"F  c #282B2F",
"G  c #2C2435",
"H  c #292B30",
"J  c #2B2D31",
"K  c #2A2D32",
"L  c #2B2E32",
"P  c #2C2E32",
"I  c #282D35",
"U  c #2B313A",
"Y  c #34373D",
"T  c #36383D",
"R  c #34383F",
"E  c #36393F",
"W  c #372D42",
"Q  c #373A40",
"!  c #383B40",
"~  c #3B3E45",
"^  c #403249",
"/  c #493A54",
"(  c #3D4148",
")  c #424852",
"_  c #434852",
"`  c #454850",
"'  c #464B51",
"]  c #494D53",
"[  c #4C5057",
"{  c #4E5259",
"}  c #53575F",
"|  c #56595E",
" . c #4D5460",
".. c #515660",
"X. c #505661",
"o. c #535761",
"O. c #555963",
"+. c #585B63",
"@. c #575F70",
"#. c #5F646D",
"$. c #5E646F",
"%. c #5D6370",
"&. c #5F6570",
"*. c #60646E",
"=. c #61666E",
"-. c #616B7E",
";. c #6B707B",
":. c #6A717E",
">. c #6F747E",
",. c #6F7583",
"<. c #6A7284",
"1. c #737780",
"2. c #737987",
"3. c #757B88",
"4. c #767D8A",
"5. c #797F8A",
"6. c #787F8B",
"7. c #7A818E",
"8. c #7C828E",
"9. c #758097",
"0. c #7D8697",
"q. c #7A859C",
"w. c #828996",
"e. c #848B9B",
"r. c #8B919F",
"t. c #8B929F",
"y. c #909090",
"u. c #8A91A1",
"i. c #8590A9",
"p. c #8A96AD",
"a. c #939AA8",
"s. c #939BA9",
"d. c #969FB3",
"f. c #99A0AE",
"g. c #99A2B5",
"h. c #94A0B9",
"j. c #9AA5BD",
"k. c #A2A9B8",
"l. c #A2AAB8",
"z. c #A2AABC",
"x. c #A5ACBD",
"c. c #A9B0BD",
"v. c #A8B0BF",
"b. c #A6AEC1",
"n. c #AAB3C7",
"m. c #AEB6C8",
"M. c #ADB7CB",
"N. c #ABB6CC",
"B. c #ADB8CF",
"V. c #A0B0D0",
"C. c #A1B1D2",
"Z. c #AFBAD0",
"A. c #ADBDDC",
"S. c #AFBEDC",
"D. c #B6BFD0",
"F. c #B4BFD8",
"G. c #B7C0D1",
"H. c #BAC4D7",
"J. c #BAC3D8",
"K. c #B8C3DB",
"L. c #BEC7D8",
"P. c #BBC7DE",
"I. c #BDC8DF",
"U. c #BFC9DE",
"Y. c #BFC9DF",
"T. c #BCC9E6",
"R. c #BFCCE4",
"E. c #B7C9EC",
"W. c #BFD3FA",
"Q. c #CBCFD7",
"!. c #C3CCDF",
"~. c #C3CDDF",
"^. c #C4CDDF",
"/. c #DADCDD",
"(. c #C0CBE0",
"). c #C5CEE1",
"_. c #C1CDE5",
"`. c #C3CEE4",
"'. c #C1CDE7",
"]. c #C9D2E4",
"[. c #C6D3ED",
"{. c #C7D4EF",
"}. c #CDD6E9",
"|. c #C8D4EE",
" X c #C9D5EE",
".X c #CED8EC",
"XX c #CED8ED",
"oX c #CCD8EE",
"OX c #D0DAED",
"+X c #D0DAEE",
"@X c #D2DBEF",
"#X c #D2DCEF",
"$X c #CDD8F0",
"%X c #CED9F0",
"&X c #CDDAF5",
"*X c #CDDBF7",
"=X c #C0D4FB",
"-X c #C3D6FC",
";X c #C6D8FC",
":X c #C8D9FC",
">X c #CBDBFC",
",X c #CCDCFD",
"<X c #CEDDFD",
"1X c #D0DFFD",
"2X c #D7E3FA",
"3X c #D2E0FD",
"4X c #D4E2FE",
"5X c #D5E2FE",
"6X c #D6E3FE",
"7X c #D7E4FE",
"8X c #D8E3F8",
"9X c #DBE5F8",
"0X c #D8E4FE",
"qX c #D9E5FE",
"wX c #DAE6FE",
"eX c #DBE6FF",
"rX c #DBE7FF",
"tX c #DEE7FC",
"yX c #DCE7FF",
"uX c #DCE8FF",
"iX c #DDE8FF",
"pX c #DDE9FF",
"aX c #DEE9FF",
"sX c #DFE9FF",
"dX c #DFEAFF",
"fX c #DFEBFF",
"gX c #E0EAFF",
"hX c #E0EBFF",
"jX c #E1EBFF",
"kX c #E2EBFE",
"lX c #E2EBFF",
"zX c #E3ECFF",
"xX c #E4ECFF",
"cX c #E4EDFF",
"vX c #E6EEFF",
"bX c #E7EFFF",
"nX c #E7F0FF",
"mX c #E8F0FF",
"MX c #E9F0FF",
"NX c #ECF3FF",
"BX c #EEF3FF",
"VX c #EDF4FF",
"CX c #F0F5FF",
"ZX c #F1F6FF",
"AX c #F5F8FF",
"SX c #F7FAFF",
"DX c #F8FBFF",
"FX c #F9FBFF",
"GX c #FBFCFF",
"HX c #FCFEFF",
"JX c #FDFEFF",
"KX c white",
"LX c None",
/* pixels */
"LXLXLXLXLXLXLXLXLXLXLXLXLXLXLXLXLXLXLXLXLXLXLXLXLXLXLXLXLXLXLXLXLXLXLXLXLXLXLXLXLXLXLXLXLXLXLXLXLXLXLXLXLXLXLXLXLXLXLXLXLXLXLXLX",
"LXLXLXLXLXLXLXLXLXLXLXLXLXLXLXLXLXLXLXLXLXLXLXLXLXLXLXLXLXLXLXLXLXLXLXLXLXLXLXLXLXLXLXLXLXLXLXLXLXLXLXLXLXLXLXLXLXLXLXLXLXLXLXLX",
"LXLXLXLXLXLXLXLXLXLXLXLXLXLXLXLXLXLXLXLXLXLXLXLXLXLXLXLXLXLXLXLXLXLXLXLXLXLXLXLXLXLXLXLXLXLXLXLXLXLXLXLXLXLXLXLXLXLXLXLXLXLXLXLX",
"LXLXLXLXLXLXLXLXLXLXLXLXLXLXLXLXLXLXLXLXLXLXLXLXLXLXLXLXLXLXLXLXLXLXLXLXLXLXLXLXLXLXLXLXLXLXLXLXLXLXLXLXLXLXLXLXLXLXLXLXLXLXLXLX",
"LXLXLXLXLXLXLXLXLXLXLXLXLXLXLXLXLXLXLXLXLXLXLXLXLXLXLXLXLXLXLXLXLXLXLXLXLXLXLXLXLXLXLXLXLXLXLXLXLXLXLXLXLXLXLXLXLXLXLXLXLXLXLXLX",
"LXLXLXLXLXLXLXLXLXLXLXLXLXLXLXLXLXLXLXLXLXLXLXLXLXLXLXLXLXLXLXLXLXLXLXLXLXLXLXLXLXLXLXLXLXLXLXLXLXLXLXLXLXLXLXLXLXLXLXLXLXLXLXLX",
"LXLXLXLXLXLXLXLXLXLXLXLXLXLXLXLXLXLXLXLXLXLXLXLXLXLXLXLXLXLXLXLXLXLXLXLXLXLXLXLXLXLXLXLXLXLXLXLXLXLXLXLXLXLXLXLXLXLXLXLXLXLXLXLX",
"LXLXLXLXLXLXLXLXLXLXLXLXLXLXLXLXLXLXLXLXLXLXLXLXLXLXLXLXLXLXLXLXLXLXLXLXLXLXLXLXLXLXLXLXLXLXLXLXLXLXLXLXLXLXLXLXLXLXLXLXLXLXLXLX",
"LXLXLXLXLXLXLXLXLXLXLXLXLXLXLXLXLXLXLXLXLXLXLXLXLXLXLXLXLXLXLXLXLXLXLXLXLXLXLXLXLXLXLXLXLXLXLXLXLXLXLXLXLXLXLXLXLXLXLXLXLXLXLXLX",
"LXLXLXLXLXLXLXLXLXLXLXLXLXLXLXLXLXLXLXLXLXLXLXLXLXLXLXLXLXLXLXLXLXLXLXLXLXLXLXLXLXLXLXLXLXLXLXLXLXLXLXLXLXLXLXLXLXLXLXLXLXLXLXLX",
"LXLXLXLXLXLXLXLXLXLXLXLXLXLXLXLXLXLXLXLXLXLXLXLXLXLXLXLXLXLXLXLXLXLXLXLXLXLXLXLXLXLXLXLXLXLXLXLXLXLXLXLXLXLXLXLXLXLXLXLXLXLXLXLX",
"LXLXLXLXLXLXLXLXLXLXLXLXLXLXLXLXLXLXLXLXLXLXLXLXLXLXLXLXLXLXLXLXLXLXLXLXLXLX        LXLXLXLXLXLXLXLXLXLXLXLXLXLXLXLXLXLXLXLXLXLX",
"LXLXLXLXLXLXLXLXLXLXLXLXLXLXLXLXLXLXLXLXLXLXLXLXLXLXLXLXLXLXLXLXLXLXLX      r I U 0       LXLXLXLXLXLXLXLXLXLXLXLXLXLXLXLXLXLXLX",
"LXLXLXLXLXLXLXLXLXLXLXLXLXLXLXLXLXLXLXLXLXLXLXLXLXLXLXLXLXLXLXLXLXLX  2 -.C.W.=X=X=XV.9.g     LXLXLXLXLXLXLXLXLXLXLXLXLXLXLXLXLX",
"LXLXLXLXLXLXLXLXLXLXLXLXLXLXLXLXLXLXLXLXLXLXLXLXLXLXLXLXLXLXLXLX    @.E.-X-X-X-X-X-X-X-X-Xq.6   LXLXLXLXLXLXLXLXLXLXLXLXLXLXLXLX",
"LXLXLXLXLXLXLXLXLXLXLXLXLXLXLXLXLXLXLXLXLXLXLXLXLXLXLXLXLXLXLX  < i.;X;X;X;X;X;X;X;X;X;X;X;XA.l   LXLXLXLXLXLXLXLXLXLXLXLXLXLXLX",
"LXLXLXLXLXLXLXLXLXLXLXLXLXLXLXLXLXLXLXLXLXLXLXLXLXLXLXLXLXLX    p.:X:X:X:X:X:X:X:X:X:X:X:X:X:XS.u   LXLXLXLXLXLXLXLXLXLXLXLXLXLX",
"LXLXLXLXLXLXLXLXLXLXLXLXLXLXLXLXLXLXLXLXLXLXLXLXLXLXLXLXLXLX  <.>X>X>X>X>X>X>X>X>X>X>X>X>X>X>X>Xh.  LXLXLXLXLXLXLXLXLXLXLXLXLXLX",
"LXLXLXLXLXLXLXLXLXLXLXLXLXLXLXLXLXLXLXLXLXLXLXLXLXLXLXLXLX  A ,X,X,X,X,X,X,X,X,X,X,X,X,X,X,X,X,X,X .  LXLXLXLXLXLXLXLXLXLXLXLXLX",
"LXLXLXLXLXLXLXLXLXLXLXLXLXLXLXLXLXLXLXLXLXLXLXLXLXLXLXLXLX  j.<X<X<X<X<X<X<X<X<X<X<X<X<X<X<X<X<X<XT.  LXLXLXLXLXLXLXLXLXLXLXLXLX",
"LXLXLXLXLXLXLXLXLXLXLXLXLXLXLXLXLXLXLXLXLXLXLXLXLXLXLXLX  v 1X1X1X1X1X1X1X1X1X1X1X1X1X1X1X1X1X1X1X1XR   LXLXLXLXLXLXLXLXLXLXLXLX",
"LXLXLXLXLXLXLXLXLXLXLXLXLXLXLXLXLXLXLXLXLXLXLXLXLXLXLXLX  %.3X3X3X3X3X3X3X3X3X3X3X3X3X3X3X3X3X3X3X3X0.  LXLXLXLXLXLXLXLXLXLXLXLX",
"LXLXLXLXLXLXLXLXLXLXLXLXLXLXLXLXLXLXLXLXLXLXLXLXLXLXLXLX  d.4X4X4X4X4X4X4X4X4X{.N.[.4X4X4X4X*XB.'.4XF.  LXLXLXLXLXLXLXLXLXLXLXLX",
"LXLXLXLXLXLXLXLXLXLXLXLXLXLXLXLXLXLXLXLXLXLXLXLXLXLXLXLX  Z.6X6X6X6X6X6X6X6X_.Z   z  X6X6X6XK   s K.|.  LXLXLXLXLXLXLXLXLXLXLXLX",
"LXLXLXLXLXLXLXLXLXLXLXLXLXLXLXLXLXLXLXLXLXLXLXLXLXLXLXLX  P.7X7X7X7X7X7X7X7Xe.  S + :.7X7Xg.  n + o.7Xy   LXLXLXLXLXLXLXLXLXLXLX",
"LXLXLXLXLXLXLXLXLXLXLXLXLXLXLXLXLXLXLXLXLXLXLXLXLXLXLXLX  I.0X0X0X0X0X0X0X0XO.& W > ..0X0X,.& / i E 0Xj   LXLXLXLXLXLXLXLXLXLXLX",
"LXLXLXLXLXLXLXLXLXLXLXLXLXLXLXLXLXLXLXLXLXLXLXLXLXLXLXLX  $XqXqXqXqXqXqXqXqX2.O G # &.qXqXu.. ^ ; ( qXt   LXLXLXLXLXLXLXLXLXLXLX",
"LXLXLXLXLXLXLXLXLXLXLXLXLXLXLXLXLXLXLXLXLXLXLXLXLXLXLX  N wXwXwXwXwXwXwXwXwX`.y   3 U.wXwXoXk   % n.2XX LXLXLXLXLXLXLXLXLXLXLXLX",
"LXLXLXLXLXLXLXLXLXLXLXLXLXLXLXLXLXLXLXLXLXLXLXLXLXLXLX  ~ eXeXeXeXeXeXeXeXeXeXY.3.J.eXeXeXeXY.4.b.eX(.  LXLXLXLXLXLXLXLXLXLXLXLX",
"LXLXLXLXLXLXLXLXLXLXLXLXLXLXLXLXLXLXLXLXLXLXLXLXLXLXLX  3.rXrXrXrXrXrXrXrXrXrXrXrXrXrXrXrXrXrXrXrXrXz.  LXLXLXLXLXLXLXLXLXLXLXLX",
"LXLXLXLXLXLXLXLXLXLXLXLXLXLXLXLXLXLXLXLXLXLXLXLXLXLXLX  H.uXuXuXuXuXuXuXuXuXuXuXuXuXuXuXuXuXuXuXuXuX7.  LXLXLXLXLXLXLXLXLXLXLXLX",
"LXLXLXLXLXLXLXLXLXLXLXLXLXLXLXLXLXLXLXLXLXLXLXLXLXLX  J iXiXiXiXiXiXiXiXiXiXiXiXiXiXiXiXiXiXiXiXiXiXQ   LXLXLXLXLXLXLXLXLXLXLXLX",
"LXLXLXLXLXLXLXLXLXLXLXLXLXLXLXLXLXLXLXLXLXLXLXLXLXLX  t.aXaXaXaXaXaXaXaXaXaXaXaXaXaXaXaXaXaXaXaXaXXX  LXLXLXLXLXLXLXLXLXLXLXLXLX",
"LXLXLXLXLXLXLXLXLXLXLXLXLXLXLXLXLXLXLXLXLXLXLXLXLX  m aXaXaXaXaXaXaXaXaXaXaXaXaXaXaXaXaXaXaXaXaXaXr.  LXLXLXLXLXLXLXLXLXLXLXLXLX",
"LXLXLXLXLXLXLXLXLXLXLXLXLXLXLXLXLXLXLXLXLXLXLXLXLX  x.aXaXaXaXaXaXaXaXaXaXaXaXaXaXaXaXaXaXaXaXaXaXD   LXLXLXLXLXLXLXLXLXLXLXLXLX",
"LXLXLXLXLXLXLXLXLXLXLXLXLXLXLXLXLXLXLXLXLXLXLXLX  *.sXsXsXsXsXsXsXsXsXsXsXsXsXsXsXsXsXsXsXsXsXsXs.  LXLXLXLXLXLXLXLXLXLXLXLXLXLX",
"LXLXLXLXLXLXLXLXLXLXLXLXLXLXLXLXLXLXLXLXLXLXLX  M .XdXdXdXdXdXdXdXdXdXdXdXdXdXdXdXdXdXdXdXdXdXdXx   LXLXLXLXLXLXLXLXLXLXLXLXLXLX",
"LXLXLXLXLXLXLXLXLXLXLXLXLXLXLXLXLXLXLXLXLXLX  a ~.dXdXdXdXfXDXVXdXdXdXdXdXdXdXdXdXdXdXdXdXdXdX8.  LXLXLXLXLXLXLXLXLXLXLXLXLXLXLX",
"LXLXLXLXLXLXLXLXLXLXLXLXLXLXLXLXLXLXLXLXLX  d G.dXdXdXdXjXdXCXnXdXdXdXdXdXdXdXdXdXdXdXdXdXdX!.=   LXLXLXLXLXLXLXLXLXLXLXLXLXLXLX",
"LXLXLXLXLXLXLXLXLXLXLXLXLXLXLXLXLXLXLXLX  9 D.dXdXdXdXlXSXNXdXdXdXdXdXdXdXdXdXdXdXdXdXdXdX+Xc   LXLXLXLXLXLXLXLXLXLXLXLXLXLXLXLX",
"LXLXLXLXLXLXLXLXLXLXLXLXLXLXLXLXLXLXLX  f ~.gXgXgXgXvXGXJXMXgXgXgXgXgXgXgXgXgXgXgXgXgXgXtX]   LXLXLXLXLXLXLXLXLXLXLXLXLXLXLXLXLX",
"LXLXLXLXLXLXLXLXLXLXLXLXLXLXLXLXLXLX  C ^.gXgXgXgXBXJXFXcXgXgXgXgXgXgXgXgXgXgXgXgXgXgXgX+.  LXLXLXLXLXLXLXLXLXLXLXLXLXLXLXLXLXLX",
"LXLXLXLXLXLXLXLXLXLXLXLXLXLXLXLXLX  V OXgXgXgXbXFXKXZXlXgXgXxXAXzXgXgXgXgXgXgXgXgXgX@X[   LXLXLXLXLXLXLXLXLXLXLXLXLXLXLXLXLXLXLX",
"LXLXLXLXLXLXLXLXLXLXLXLXLXLXLXLX  p ].hX#Xk.| y.FXmXhXhXhXcXGXHXvXhXhXhXhXhXhXhXhX).H   LXLXLXLXLXLXLXLXLXLXLXLXLXLXLXLXLXLXLXLX",
"LXLXLXLXLXLXLXLXLXLXLXLXLXLXLXLX  e ;.! ,     1.hXhXhXhXc./.GXcX}.=.x L L.hXhXhXa.q   LXLXLXLXLXLXLXLXLXLXLXLXLXLXLXLXLXLXLXLXLX",
"LXLXLXLXLXLXLXLXLXLX      LXLXLXLX      LXLX  >.jX9Xf.T   Q.kX5.4       7 v.l.!     LXLXLXLXLXLXLXLXLXLXLXLXLXLXLXLXLXLXLXLXLXLX",
"LXLXLXLXLXLXLXLXLX  w ) h   LXLXLXLXLXLXLXLX  1 P -       b 4     LXLXLX        LXLXLXLXLXLXLXLXLXLXLXLXLXLXLXLXLXLXLXLXLXLXLXLX",
"LXLXLXLXLXLXLXLX  $.&X5XR.  LXLXLXLXLXLXLXLXLX    LXLXLXLX    LXLXLXLXLXLXLXLXLXLXLXLXLXLXLXLXLXLXLXLXLXLXLXLXLXLXLXLXLXLXLXLXLX",
"LXLXLXLXLXLXLX  ` yXyXyXw.  LXLXLXLXLXLXLXLXLXLXLXLXLXLXLXLXLXLXLXLX  LXLXLXLXLXLXLXLXLXLXLXLXLXLXLXLXLXLXLXLXLXLXLXLXLXLXLXLXLX",
"LXLXLXLXLXLXLX  } dX8X6.=   LXLXLXLXLXLXLXLXLXLXLXLXLXLXLXLXLXLXLX  B :   LXLXLXLXLXLXLXLXLXLXLXLXLXLXLXLXLXLXLXLXLXLXLXLXLXLXLX",
"LXLXLXLXLXLXLXLX  * O     LXLXLXLXLXLXLXLXLXLXLXLXLXLXLXLXLXLXLX  [ %XF   LXLXLXLXLXLXLXLXLXLXLXLXLXLXLXLXLXLXLXLXLXLXLXLXLXLXLX",
"LXLXLXLXLXLXLXLXLX  LXLXLXLXLXLXLXLXLXLX      LXLXLXLXLXLXLXLXLX  8 4   LXLXLXLXLXLXLXLXLXLXLXLXLXLXLXLXLXLXLXLXLXLXLXLXLXLXLXLX",
"LXLXLXLXLXLXLXLXLXLXLXLXLXLXLXLXLXLX  o _ X.$   LXLXLXLXLXLXLXLXLX    LXLXLXLXLXLXLXLXLXLXLXLXLXLXLXLXLXLXLXLXLXLXLXLXLXLXLXLXLX",
"LXLXLXLXLXLXLXLXLXLXLXLXLXLXLXLXLXLX@ M.7X7XY   LXLXLXLXLXLXLXLXLXLXLXLXLXLXLXLXLXLXLXLXLXLXLXLXLXLXLXLXLXLXLXLXLXLXLXLXLXLXLXLX",
"LXLXLXLXLXLXLXLXLXLXLXLXLXLXLXLXLX  ' pXpXm.  LXLXLXLXLXLXLXLXLXLXLXLXLXLXLXLXLXLXLXLXLXLXLXLXLXLXLXLXLXLXLXLXLXLXLXLXLXLXLXLXLX",
"LXLXLXLXLXLXLXLXLXLXLXLXLXLXLXLXLX  5 #.{ o   LXLXLXLXLXLXLXLXLXLXLXLXLXLXLXLXLXLXLXLXLXLXLXLXLXLXLXLXLXLXLXLXLXLXLXLXLXLXLXLXLX",
"LXLXLXLXLXLXLXLXLXLXLXLXLXLXLXLXLXLX      LXLXLXLXLXLXLXLXLXLXLXLXLXLXLXLXLXLXLXLXLXLXLXLXLXLXLXLXLXLXLXLXLXLXLXLXLXLXLXLXLXLXLX",
"LXLXLXLXLXLXLXLXLXLXLXLXLXLXLXLXLXLXLXLXLXLXLXLXLXLXLXLXLXLXLXLXLXLXLXLXLXLXLXLXLXLXLXLXLXLXLXLXLXLXLXLXLXLXLXLXLXLXLXLXLXLXLXLX",
"LXLXLXLXLXLXLXLXLXLXLXLXLXLXLXLXLXLXLXLXLXLXLXLXLXLXLXLXLXLXLXLXLXLXLXLXLXLXLXLXLXLXLXLXLXLXLXLXLXLXLXLXLXLXLXLXLXLXLXLXLXLXLXLX",
"LXLXLXLXLXLXLXLXLXLXLXLXLXLXLXLXLXLXLXLXLXLXLXLXLXLXLXLXLXLXLXLXLXLXLXLXLXLXLXLXLXLXLXLXLXLXLXLXLXLXLXLXLXLXLXLXLXLXLXLXLXLXLXLX",
"LXLXLXLXLXLXLXLXLXLXLXLXLXLXLXLXLXLXLXLXLXLXLXLXLXLXLXLXLXLXLXLXLXLXLXLXLXLXLXLXLXLXLXLXLXLXLXLXLXLXLXLXLXLXLXLXLXLXLXLXLXLXLXLX",
"LXLXLXLXLXLXLXLXLXLXLXLXLXLXLXLXLXLXLXLXLXLXLXLXLXLXLXLXLXLXLXLXLXLXLXLXLXLXLXLXLXLXLXLXLXLXLXLXLXLXLXLXLXLXLXLXLXLXLXLXLXLXLXLX",
"LXLXLXLXLXLXLXLXLXLXLXLXLXLXLXLXLXLXLXLXLXLXLXLXLXLXLXLXLXLXLXLXLXLXLXLXLXLXLXLXLXLXLXLXLXLXLXLXLXLXLXLXLXLXLXLXLXLXLXLXLXLXLXLX",
"LXLXLXLXLXLXLXLXLXLXLXLXLXLXLXLXLXLXLXLXLXLXLXLXLXLXLXLXLXLXLXLXLXLXLXLXLXLXLXLXLXLXLXLXLXLXLXLXLXLXLXLXLXLXLXLXLXLXLXLXLXLXLXLX"
};
