/* XPM */
static char *result[] = {
/* columns rows colors chars-per-pixel */
"64 64 148 2 ",
"   c black",
".  c #010101",
"X  c #020202",
"o  c #030302",
"O  c gray1",
"+  c #040404",
"@  c gray2",
"#  c #050605",
"$  c #060606",
"%  c #070706",
"&  c #070707",
"*  c #070807",
"=  c gray3",
"-  c #090909",
";  c gray4",
":  c #0A0B0A",
">  c #0B0B0A",
",  c #0B0B0B",
"<  c #0C0C0B",
"1  c #0D0D0C",
"2  c gray5",
"3  c #0E0E0D",
"4  c gray6",
"5  c #101010",
"6  c #101110",
"7  c #121211",
"8  c #121311",
"9  c gray7",
"0  c #131312",
"q  c #131413",
"w  c #151615",
"e  c #161615",
"r  c #171716",
"t  c gray9",
"y  c #181817",
"u  c #181818",
"i  c #1A1A19",
"p  c #1A1B19",
"a  c #1B1B1A",
"s  c #1B1C1A",
"d  c #1D1E1C",
"f  c #1F201E",
"g  c #20201E",
"h  c #20201F",
"j  c #202120",
"k  c #212120",
"l  c #212220",
"z  c #232422",
"x  c #252523",
"c  c #252524",
"v  c #262625",
"b  c gray16",
"n  c #2A2A28",
"m  c #2B2B29",
"M  c #2D2D2B",
"N  c #2C2C2C",
"B  c #2E2E2D",
"V  c #2F2F2E",
"C  c #2F312E",
"Z  c #31312F",
"A  c #323230",
"S  c #333331",
"D  c #323232",
"F  c #343432",
"G  c #353633",
"H  c #353534",
"J  c #353535",
"K  c #353634",
"L  c #363634",
"P  c #363734",
"I  c #373734",
"U  c #363735",
"Y  c #373735",
"T  c #383936",
"R  c #3A3A38",
"E  c #3B3B38",
"W  c #3A3B39",
"Q  c #3B3C39",
"!  c #3B3C3A",
"~  c #3D3D3B",
"^  c #3C3C3C",
"/  c #3E3E3E",
"(  c #3F403E",
")  c #40403E",
"_  c #41423F",
"`  c #424340",
"'  c #434340",
"]  c #434341",
"[  c gray26",
"{  c #444543",
"}  c #454543",
"|  c #444444",
" . c #464644",
".. c #464744",
"X. c #474745",
"o. c #464646",
"O. c #474845",
"+. c #484845",
"@. c #484846",
"#. c #494946",
"$. c #494A47",
"%. c #4A4A48",
"&. c #4B4B49",
"*. c #4C4C4A",
"=. c #4D4D4A",
"-. c #51514E",
";. c #51514F",
":. c #575754",
">. c #585855",
",. c #585856",
"<. c #595956",
"1. c #5C5C59",
"2. c #646461",
"3. c #656562",
"4. c #646464",
"5. c #777777",
"6. c #797979",
"7. c gray48",
"8. c #7C7C7C",
"9. c #7E7E7D",
"0. c #878782",
"q. c #878783",
"w. c #888883",
"e. c #8D8D8D",
"r. c #949493",
"t. c #989898",
"y. c #9B9B9B",
"u. c #9F9F9F",
"i. c #A0A09B",
"p. c #A2A29D",
"a. c #A7A7A1",
"s. c #AAAAA5",
"d. c #ABABA5",
"f. c #ACACA9",
"g. c #AEAEAB",
"h. c #AFAFAD",
"j. c #B4B4B0",
"k. c #B5B5B1",
"l. c #B7B7B3",
"z. c #B9B9B3",
"x. c #BDBDB7",
"c. c #C0C0B9",
"v. c #C2C2BB",
"b. c #C3C3BC",
"n. c #C8C8C2",
"m. c #CCCCC5",
"M. c #CDCDC6",
"N. c None",
/* pixels */
"N.N.N.N.N.          N.N.N.N.N.N.N.N.N.N.N.N.N.N.N.N.N.N.N.N.N.N.N.N.N.N.N.N.N.N.N.N.N.N.N.N.N.N.N.N.N.N.N.N.          N.N.N.N.N.",
"N.N.N.N.  u | o.1.h   N.N.N.N.N.N.N.N.N.N.N.N.N.N.N.N.N.N.N.N.N.N.N.N.N.N.N.N.N.N.N.N.N.N.N.N.N.N.N.N.N.N.  g 1.1.1.h   N.N.N.N.",
"N.N.N.N.  J t.y.M.%.  N.N.N.N.N.N.N.N.N.N.N.N.N.N.N.N.N.N.N.N.N.N.N.N.N.N.N.N.N.N.N.N.N.N.N.N.N.N.N.N.N.N.  X.M.M.M.&.  N.N.N.N.",
"N.N.N.N.  J t.y.M.%.  N.N.N.N.N.N.N.N.N.N.N.N.N.N.N.N.N.N.N.N.N.N.N.N.N.N.N.N.N.N.N.N.N.N.N.N.N.N.N.N.N.N.  X.M.M.M.&.  N.N.N.N.",
"          / g.h.M.*.          N.N.N.N.N.N.N.N.N.N.N.N.N.N.N.N.N.N.N.N.N.N.N.N.N.N.N.N.N.N.N.N.N.N.          #.M.M.M.=.          ",
"  D 6.9.p.c.M.M.M.z.p.p.p.+.  N.N.N.N.N.N.N.N.N.N.N.N.N.N.N.N.N.N.N.N.N.N.N.N.N.N.N.N.N.N.N.N.N.N.  ] p.p.p.c.M.M.M.z.p.p.p.+.  ",
"  [ t.u.M.M.M.M.M.M.M.M.M.,.  N.N.N.N.N.N.N.N.N.N.N.N.N.N.N.N.    N.N.N.N.N.N.N.N.N.N.N.N.N.N.N.N.  <.M.M.M.M.M.M.M.M.M.M.M.<.  ",
"  [ t.u.M.M.M.M.M.M.M.M.M.,.  N.N.N.N.N.N.N.N.N.N.N.N.N.N.N.        N.N.N.N.N.N.N.N.N.N.N.N.N.N.N.  <.M.M.M.M.M.M.M.M.M.M.M.<.  ",
"  ^ e.r.x.m.M.M.M.n.x.x.x.-.  N.N.N.N.N.N.N.N.N.N.N.N.N.N.    N.N.    N.N.N.N.N.N.N.N.N.N.N.N.N.N.  ;.x.x.x.m.M.M.M.n.x.x.x.;.  ",
"          } k.l.M.>.          N.N.N.N.N.N.N.N.N.N.N.N.N.    N.N.N.N.    N.N.N.N.N.N.N.N.N.N.N.N.N.          =.M.M.M.>.          ",
"N.N.N.N.  J t.y.M.%.  N.N.N.N.N.N.N.N.N.N.N.N.N.N.N.N.      N.N.N.N.      N.N.N.N.N.N.N.N.N.N.N.N.N.N.N.N.  X.M.M.M.&.  N.N.N.N.",
"N.N.N.N.  J t.y.M.%.  N.N.N.N.N.N.N.N.N.N.N.N.N.N.N.    N.  N.N.N.N.  N.    N.N.N.N.N.N.N.N.N.N.N.N.N.N.N.  X.M.M.M.&.  N.N.N.N.",
"N.N.N.N.  J t.y.M.%.  N.N.N.N.N.N.N.N.N.N.N.N.N.N.    N.N.  N.N.N.N.  N.N.    N.N.N.N.N.N.N.N.N.N.N.N.N.N.  X.M.M.M.&.  N.N.N.N.",
"N.N.N.N.  J t.y.M.%.  N.N.N.N.N.N.N.N.N.N.N.N.N.    N.N.N.  N.N.N.N.  N.N.N.    N.N.N.N.N.N.N.N.N.N.N.N.N.  X.M.M.M.&.  N.N.N.N.",
"N.N.N.N.  J t.y.M.%.  N.N.N.N.N.N.N.N.N.N.N.N.      N.N.N.  N.N.N.N.  N.N.N.      N.N.N.N.N.N.N.N.N.N.N.N.  X.M.M.M.&.  N.N.N.N.",
"N.N.N.N.  J t.y.M.%.  N.N.N.N.N.N.N.N.N.N.N.  N.N.  N.N.N.  N.N.N.N.  N.N.N.  N.N.  N.N.N.N.N.N.N.N.N.N.N.  X.M.M.M.&.  N.N.N.N.",
"N.N.N.N.  J t.y.M.%.  N.N.N.N.N.N.N.N.N.    N.N.N.  N.N.N.  N.N.N.N.  N.N.N.  N.N.N.    N.N.N.N.N.N.N.N.N.  X.M.M.M.&.  N.N.N.N.",
"N.N.N.N.  J t.y.M.%.  N.N.N.N.N.N.N.N.    N.N.N.N.  N.N.N.  N.N.N.N.  N.N.N.  N.N.N.N.    N.N.N.N.N.N.N.N.  X.M.M.M.&.  N.N.N.N.",
"N.N.N.N.  N 5.7.i.L   N.N.N.N.N.N.N.      N.N.N.N.  N.N.N.  N.N.N.N.  N.N.N.  N.N.N.N.      N.N.N.N.N.N.N.  E i.i.i.L   N.N.N.N.",
"N.                          N.N.N.    N.  N.N.N.N.  N.N.N.  N.N.N.N.  N.N.N.  N.N.N.N.  N.    N.N.N.                          N.",
"N.+ v Z _ O.O.O.O.O.O.O.U + N.N.    N.N.  N.N.N.N.  N.N.N.  N.N.N.N.  N.N.N.  N.N.N.N.  N.N.    N.N.# Y ..O.O.O.O.O.O.O.O.U + N.",
"  7 S g = 1 Q $.! 2 < B $.d       N.N.N.  N.N.N.N.  N.N.N.  N.N.N.N.  N.N.N.  N.N.N.N.  N.N.N.      i $.M = 1 Q $.! 2 < B $.d   ",
"  e A X h a > j - i l + O.f       N.N.N.  N.N.N.N.  N.N.N.  N.N.N.N.  N.N.N.  N.N.N.N.  N.N.N.      h @.+ h a : j - i l + O.f   ",
"  9 Z 4 ' n 4 ~ 1 m { r O.u       N.N.N.  N.N.N.N.  N.N.N.  N.N.N.N.  N.N.N.  N.N.N.N.  N.N.N.      p ..w ` n 4 ~ 1 m { r O.u   ",
"N.X c S T - :.M.3.- ) $.U . N.    N.N.N.  N.N.N.N.  N.N.N.  N.N.N.N.  N.N.N.  N.N.N.N.  N.N.N.    N.o K $.( - <.M.2.- ) $.U . N.",
"N.    + . b f.M.b.R   &     N.    N.N.N.  N.N.N.N.  N.N.N.  N.N.N.N.  N.N.N.  N.N.N.N.  N.N.N.    N.    % . Y v.M.b.R   &     N.",
"N.N.N.  4.t.j.M.M.M.q.  N.N.N.    N.N.N.  N.N.N.N.  N.N.N.  N.N.N.N.  N.N.N.  N.N.N.N.  N.N.N.    N.N.N.  0.M.M.M.M.M.w.  N.N.N.",
"N.N.N.  8.t.j.M.M.M.s.  N.N.N.    N.N.N.  N.N.N.N.  N.N.N.  N.N.N.N.  N.N.N.  N.N.N.N.  N.N.N.    N.N.N.  a.M.M.M.M.M.d.  N.N.N.",
"N.N.N.  8.t.j.M.M.M.s.  N.N.N.    N.N.N.  N.N.N.N.  N.N.N.  N.N.N.N.  N.N.N.  N.N.N.N.  N.N.N.    N.N.N.  a.M.M.M.M.M.d.  N.N.N.",
"N.N.N.  8.t.j.M.M.M.s.  N.N.N.    N.N.N.  N.N.N.N.  N.N.N.  N.N.N.N.  N.N.N.  N.N.N.N.  N.N.N.    N.N.N.  a.M.M.M.M.M.d.  N.N.N.",
"N.N.N.  8.t.j.M.M.M.s.  N.N.N.    N.N.N.  N.N.N.N.  N.N.N.  N.N.N.N.  N.N.N.  N.N.N.N.  N.N.N.    N.N.N.  a.M.M.M.M.M.d.  N.N.N.",
"N.N.N.  8.t.j.M.M.M.s.  N.N.N.    N.N.N.  N.N.N.N.  N.N.N.  N.N.N.N.  N.N.N.  N.N.N.N.  N.N.N.    N.N.N.  a.M.M.M.M.M.d.  N.N.N.",
"N.N.N.  8.t.j.M.M.M.s.  N.N.N.    N.N.N.  N.N.N.N.  N.                    N.  N.N.N.N.  N.N.N.    N.N.N.  a.M.M.M.M.M.d.  N.N.N.",
"N.N.N.  8.t.j.M.M.M.s.  N.N.N.    N.N.N.  N.N.N.N.  N.  z V V 0 8 V V k   N.  N.N.N.N.  N.N.N.    N.N.N.  a.M.M.M.M.M.d.  N.N.N.",
"N.N.N.  8.t.j.M.M.M.s.  N.N.N.    N.N.N.  N.N.N.N.  N.  G $.$.s s $.$.H   N.  N.N.N.N.  N.N.N.    N.N.N.  a.M.M.M.M.M.d.  N.N.N.",
"N.N.N.  8.t.j.M.M.M.s.  N.N.N.    N.N.N.  N.N.N.N.  N.  G $.$.s s $.$.H   N.  N.N.N.N.  N.N.N.    N.N.N.  a.M.M.M.M.M.d.  N.N.N.",
"N.N.N.  8.t.j.M.M.M.s.  N.N.N.    N.N.N.  N.N.N.N.  N.  G q Y s s T 7 H   N.  N.N.N.N.  N.N.N.    N.N.N.  a.M.M.M.M.M.d.  N.N.N.",
"N.N.N.  8.t.j.M.M.M.s.  N.N.N.    N.N.N.  N.N.N.N.  N.  G & C s s Z $ H   N.  N.N.N.N.  N.N.N.    N.N.N.  a.M.M.M.M.M.d.  N.N.N.",
"N.N.N.  8.t.j.M.M.M.s.  N.N.N.    N.N.N.  N.N.N.N.  N.  G * A s s Z & H   N.  N.N.N.N.  N.N.N.    N.N.N.  a.M.M.M.M.M.d.  N.N.N.",
"N.N.N.  8.t.j.M.M.M.s.  N.N.N.    N.N.N.  N.N.N.N.  N.  G W  .s s O.Q H   N.  N.N.N.N.  N.N.N.    N.N.N.  a.M.M.M.M.M.d.  N.N.N.",
"N.N.N.  8.t.j.M.M.M.s.  N.N.N.    N.N.N.  N.N.N.N.  N.  G $.$.s s $.$.H   N.  N.N.N.N.  N.N.N.    N.N.N.  a.M.M.M.M.M.d.  N.N.N.",
"N.N.N.  8.t.j.M.M.M.s.  N.N.N.    N.N.N.  N.N.N.N.  N.  G $.$.s s $.$.H   N.  N.N.N.N.  N.N.N.    N.N.N.  a.M.M.M.M.M.d.  N.N.N.",
"N.N.N.  8.t.j.M.M.M.s.  N.N.N.    N.N.N.  N.N.N.N.  N.  X + + X X + + +   N.  N.N.N.N.  N.N.N.    N.N.N.  a.M.M.M.M.M.d.  N.N.N.",
"N.N.N.  8.t.j.M.M.M.s.  N.N.N.    N.N.N.  N.N.N.N.  N.N.N.    N.N.    N.N.N.  N.N.N.N.  N.N.N.    N.N.N.  a.M.M.M.M.M.d.  N.N.N.",
"N.N.N.  8.t.j.M.M.M.s.  N.N.N.    N.N.N.  N.N.N.N.  N.N.N.  N.N.N.N.  N.N.N.  N.N.N.N.  N.N.N.    N.N.N.  a.M.M.M.M.M.d.  N.N.N.",
"N.N.N.  8.t.j.M.M.M.s.  N.N.N.    N.N.N.  N.N.N.N.  N.N.N.  N.N.N.N.  N.N.N.  N.N.N.N.  N.N.N.    N.N.N.  a.M.M.M.M.M.d.  N.N.N.",
"N.N.N.  8.t.j.M.M.M.s.  N.N.N.    N.N.N.  N.N.N.N.  N.N.N.  N.N.N.N.  N.N.N.  N.N.N.N.  N.N.N.    N.N.N.  a.M.M.M.M.M.d.  N.N.N.",
"N.N.N.  8.t.j.M.M.M.s.  N.N.N.    N.N.N.  N.N.N.N.  N.N.N.  N.N.N.N.  N.N.N.  N.N.N.N.  N.N.N.    N.N.N.  a.M.M.M.M.M.d.  N.N.N.",
"N.N.N.  8.t.j.M.M.M.s.  N.N.N.    N.N.N.  N.N.N.N.  N.N.N.  N.N.N.N.  N.N.N.  N.N.N.N.  N.N.N.    N.N.N.  a.M.M.M.M.M.d.  N.N.N.",
"N.N.N.  8.t.j.M.M.M.s.  N.N.N.    N.N.N.  N.N.N.N.  N.N.N.  N.N.N.N.  N.N.N.  N.N.N.N.  N.N.N.    N.N.N.  a.M.M.M.M.M.d.  N.N.N.",
"N.N.N.  8.t.j.M.M.M.s.  N.N.N.    N.N.N.  N.N.N.N.  N.N.N.  N.N.N.N.  N.N.N.  N.N.N.N.  N.N.N.    N.N.N.  a.M.M.M.M.M.d.  N.N.N.",
"N.N.N.  8.t.j.M.M.M.s.  N.N.N.    N.N.N.  N.N.N.N.  N.N.N.  N.N.N.N.  N.N.N.  N.N.N.N.  N.N.N.    N.N.N.  a.M.M.M.M.M.d.  N.N.N.",
"N.N.N.  8.t.j.M.M.M.s.  N.N.N.    N.N.N.  N.N.N.N.  N.N.N.  N.N.N.N.  N.N.N.  N.N.N.N.  N.N.N.    N.N.N.  a.M.M.M.M.M.d.  N.N.N.",
"N.N.    O + + @ @ @ @     N.N.    N.N.N.  N.N.N.N.  N.N.N.  N.N.N.N.  N.N.N.  N.N.N.N.  N.N.N.    N.N.    + @ @ @ @ @ @     N.N.",
"N.  , x c H H H H H H H 7   N.    N.N.N.  N.N.N.N.  N.N.N.  N.N.N.N.  N.N.N.  N.N.N.N.  N.N.N.    N.  6 H H H H H H H H H 7   N.",
"N.  5 S F $.$.$.$.$.$.$.r   N.    N.N.N.  N.N.N.N.  N.N.N.  N.N.N.N.  N.N.N.  N.N.N.N.  N.N.N.    N.  r $.$.$.$.$.$.$.$.$.t   N.",
"N.  5 S F $.$.$.$.$.$.$.r   N.    N.N.N.  N.N.N.N.  N.N.N.  N.N.N.N.  N.N.N.  N.N.N.N.  N.N.N.    N.  r $.$.$.$.$.$.$.$.$.t   N.",
"N.  2 v v P P P P P P P 5   N.    N.N.N.  N.N.N.N.  N.N.N.  N.N.N.N.  N.N.N.  N.N.N.N.  N.N.N.    N.  0 P P P P P P P P P 5   N.",
"      . . . . . . . . . .         N.N.N.  N.N.N.N.  N.N.N.  N.N.N.N.  N.N.N.  N.N.N.N.  N.N.N.        . . . . . . . . . . .     ",
"  e S I $.$.$.$.$.$.$.$.$.f       N.N.N.  N.N.N.N.  N.N.N.  N.N.N.N.  N.N.N.  N.N.N.N.  N.N.N.      h $.$.$.$.$.$.$.$.$.$.$.f   ",
"  e S I $.$.$.$.$.$.$.$.$.f       N.N.N.  N.N.N.N.  N.N.N.  N.N.N.N.  N.N.N.  N.N.N.N.  N.N.N.      h $.$.$.$.$.$.$.$.$.$.$.f   ",
"  e S I $.$.$.$.$.$.$.$.$.f       N.N.N.  N.N.N.N.  N.N.N.  N.N.N.N.  N.N.N.  N.N.N.N.  N.N.N.      h $.$.$.$.$.$.$.$.$.$.$.f   ",
"  ; r y j j j j j j j j j 3                                                                         3 j j j j j j j j j j j 3   ",
"N.                                                                                                                            N."
};
